<svg id="Layer_1" data-name="Layer 1" xmlns="http://www.w3.org/2000/svg" viewBox="0 0 332.91 96.49"><defs><style>.cls-1{font-size:38.88px;fill:#fff;font-family:MyriadPro-SemiboldIt, Myriad Pro;font-weight:700;font-style:italic;}.cls-2{fill:#579dd9;}.cls-3{opacity:0.75;}.cls-4{fill:none;stroke:#579dd9;stroke-miterlimit:10;stroke-width:4px;}</style></defs><title>logo</title><text class="cls-1" transform="translate(117.09 37.72)">MUHAMMAD<tspan class="cls-2"><tspan x="0" y="46.65">SULEMAN</tspan></tspan></text><g class="cls-3"><circle class="cls-4" cx="48.25" cy="48.25" r="46.25"/><rect class="cls-4" x="52.07" y="15.65" width="8.28" height="8.28" rx="0.77" ry="0.77"/><polyline class="cls-4" points="57.04 23.93 57.04 35.52 66.97 35.52 66.97 57.04 92.95 57.04"/><rect class="cls-4" x="69.04" y="66.97" width="8.28" height="8.28" rx="0.77" ry="0.77"/><line class="cls-4" x1="73.18" y1="57.87" x2="73.18" y2="67.8"/><line class="cls-4" x1="15.4" y1="53.09" x2="0.46" y2="53.09"/><polyline class="cls-4" points="34.08 40.94 15.4 40.94 15.4 65.23 34.08 65.23"/><circle class="cls-4" cx="38.75" cy="41.88" r="4.67"/><circle class="cls-4" cx="38.75" cy="64.29" r="4.67"/><polyline class="cls-4" points="18.96 25.12 34.37 25.12 34.37 3.28"/><polyline class="cls-4" points="48.99 94.32 49.79 31.29 34.37 31.29 34.37 25.12"/><line class="cls-4" x1="49.16" y1="80.62" x2="37.46" y2="80.62"/><rect class="cls-4" x="12.79" y="25.12" width="9.25" height="9.25" rx="0.58" ry="0.58"/><rect class="cls-4" x="28.21" y="74.45" width="9.25" height="9.25" rx="0.58" ry="0.58"/></g></svg>